<svg width="32" height="32" viewBox="0 0 32 32" fill="none" xmlns="http://www.w3.org/2000/svg">
<path fill-rule="evenodd" clip-rule="evenodd" d="M6.30292 4.33706C6.63182 4.1173 7.0185 4 7.41406 4H24.5856C24.9812 4 25.3679 4.1173 25.6968 4.33706C26.0257 4.55682 26.282 4.86918 26.4334 5.23463C26.5848 5.60009 26.6244 6.00222 26.5472 6.39018C26.47 6.77814 26.2796 7.13451 25.9999 7.41421L16.707 16.7071C16.3164 17.0976 15.6833 17.0976 15.2927 16.7071L5.99985 7.41421L6.70696 6.70711L5.99985 7.41421C5.72014 7.13451 5.52966 6.77814 5.45249 6.39018C5.37532 6.00222 5.41493 5.60009 5.5663 5.23463C5.71768 4.86918 5.97402 4.55682 6.30292 4.33706ZM24.5856 6L7.41406 6L15.9998 14.5858L24.5856 6Z" fill="black"/>
<path fill-rule="evenodd" clip-rule="evenodd" d="M15.9998 15C16.2651 15 16.5194 15.1054 16.707 15.2929L25.9999 24.5858C26.2796 24.8655 26.47 25.2219 26.5472 25.6098C26.6244 25.9978 26.5848 26.3999 26.4334 26.7654C26.282 27.1308 26.0257 27.4432 25.6968 27.6629C25.3679 27.8827 24.9812 28 24.5856 28H7.41406C7.0185 28 6.63182 27.8827 6.30292 27.6629C5.97403 27.4432 5.71768 27.1308 5.5663 26.7654C5.41493 26.3999 5.37532 25.9978 5.45249 25.6098C5.52966 25.2219 5.72014 24.8655 5.99985 24.5858L15.2927 15.2929C15.4803 15.1054 15.7346 15 15.9998 15ZM15.9998 17.4142L7.41406 26H24.5856L15.9998 17.4142Z" fill="black"/>
<path fill-rule="evenodd" clip-rule="evenodd" d="M9 10C9 9.44772 9.44772 9 10 9H22C22.5523 9 23 9.44772 23 10C23 10.5523 22.5523 11 22 11H10C9.44772 11 9 10.5523 9 10Z" fill="black"/>
<path fill-rule="evenodd" clip-rule="evenodd" d="M16 15C16.5523 15 17 15.4477 17 16V21C17 21.5523 16.5523 22 16 22C15.4477 22 15 21.5523 15 21V16C15 15.4477 15.4477 15 16 15Z" fill="black"/>
</svg>
