<svg width="32" height="32" viewBox="0 0 32 32" fill="none" xmlns="http://www.w3.org/2000/svg">
<path fill-rule="evenodd" clip-rule="evenodd" d="M16 5C9.92487 5 5 9.92487 5 16C5 22.0751 9.92487 27 16 27C22.0751 27 27 22.0751 27 16C27 9.92487 22.0751 5 16 5ZM3 16C3 8.8203 8.8203 3 16 3C23.1797 3 29 8.8203 29 16C29 23.1797 23.1797 29 16 29C8.8203 29 3 23.1797 3 16Z" fill="black"/>
<path d="M16 24C16.8284 24 17.5 23.3284 17.5 22.5C17.5 21.6716 16.8284 21 16 21C15.1716 21 14.5 21.6716 14.5 22.5C14.5 23.3284 15.1716 24 16 24Z" fill="black"/>
<path fill-rule="evenodd" clip-rule="evenodd" d="M14.2779 9.34352C15.1002 9.00293 16.005 8.91381 16.8779 9.08744C17.7508 9.26108 18.5526 9.68966 19.182 10.319C19.8113 10.9483 20.2399 11.7502 20.4135 12.6231C20.5872 13.496 20.4981 14.4008 20.1575 15.2231C19.8169 16.0453 19.2401 16.7481 18.5001 17.2426C18.0413 17.5491 17.5325 17.7671 17 17.8885V18.001C17 18.5533 16.5523 19.001 16 19.001C15.4477 19.001 15 18.5533 15 18.001V17.001C15 16.7358 15.1054 16.4814 15.2929 16.2939C15.4804 16.1063 15.7348 16.001 16 16.001C16.4945 16.001 16.9778 15.8544 17.3889 15.5797C17.8 15.3049 18.1205 14.9145 18.3097 14.4577C18.4989 14.0009 18.5484 13.4982 18.452 13.0133C18.3555 12.5283 18.1174 12.0828 17.7678 11.7332C17.4181 11.3836 16.9727 11.1455 16.4877 11.049C16.0028 10.9526 15.5001 11.0021 15.0433 11.1913C14.5865 11.3805 14.196 11.7009 13.9213 12.1121C13.6466 12.5232 13.5 13.0065 13.5 13.501C13.5 14.0533 13.0523 14.501 12.5 14.501C11.9477 14.501 11.5 14.0533 11.5 13.501C11.5 12.611 11.7639 11.7409 12.2584 11.0009C12.7529 10.2609 13.4557 9.68412 14.2779 9.34352Z" fill="black"/>
</svg>
