<svg width="32" height="32" viewBox="0 0 32 32" fill="none" xmlns="http://www.w3.org/2000/svg">
<path fill-rule="evenodd" clip-rule="evenodd" d="M14.8415 2.361C15.1822 2.12591 15.5863 2 16.0002 2C16.4141 2 16.8182 2.12591 17.1588 2.361C17.497 2.59439 17.7568 2.92444 17.9042 3.30784L20.6582 10.2432C20.6618 10.2524 20.6679 10.2605 20.6759 10.2664C20.6835 10.272 20.6926 10.2755 20.702 10.2764C20.7024 10.2764 20.7028 10.2764 20.7032 10.2765L28.0797 10.7552C29.983 10.8787 30.6506 13.2687 29.2496 14.4347L23.601 19.1361C23.6006 19.1365 23.6002 19.1368 23.5999 19.1371C23.5868 19.1484 23.5771 19.1632 23.5718 19.1797C23.5664 19.1967 23.5659 19.2148 23.5703 19.2321L23.5709 19.2347L25.3924 26.4C25.8351 28.1412 23.9566 29.7169 22.3208 28.6805L16.0164 24.6863L16.5516 23.8416L16.0146 24.6852C16.0103 24.6824 16.0053 24.681 16.0002 24.681C15.997 24.681 15.994 24.6815 15.991 24.6826C15.9892 24.6832 15.9874 24.6841 15.9858 24.6852L15.984 24.6863L10.1253 28.3982C8.32824 29.5367 6.24971 27.809 6.74017 25.8797L8.4294 19.2347L8.43005 19.2321C8.43449 19.2148 8.43396 19.1967 8.42853 19.1797C8.42325 19.1632 8.41354 19.1484 8.40046 19.1371C8.4001 19.1368 8.39974 19.1365 8.39937 19.1361L2.75074 14.4347C1.34977 13.2687 2.01736 10.8787 3.92066 10.7552L11.2983 10.2764C11.3078 10.2755 11.3168 10.272 11.3245 10.2664C11.3324 10.2605 11.3386 10.2525 11.3422 10.2432L11.345 10.236L14.0962 3.30784C14.2436 2.92443 14.5033 2.59439 14.8415 2.361ZM17.0875 22.9973C17.0879 22.9976 17.0882 22.9978 17.0885 22.998L23.3912 26.9911C23.398 26.9954 23.4028 26.9977 23.4055 26.9989L23.4071 26.9995C23.4105 26.9985 23.4176 26.9958 23.4269 26.9887C23.4416 26.9776 23.4511 26.9636 23.4554 26.952C23.4573 26.9468 23.4587 26.9409 23.4591 26.9335C23.4595 26.9263 23.4593 26.9132 23.4541 26.8927L21.6332 19.73C21.6331 19.7295 21.633 19.7291 21.6329 19.7287C21.5351 19.3472 21.5469 18.9458 21.6668 18.5707C21.7869 18.1951 22.0105 17.8611 22.312 17.6069L22.3167 17.6029L27.9702 12.8975C27.9832 12.8867 27.9888 12.8788 27.9913 12.8749C27.9939 12.8707 27.996 12.8662 27.9975 12.8603C28.001 12.8472 28.0022 12.8244 27.994 12.7979C27.9857 12.7714 27.9734 12.7582 27.9696 12.7551C27.9683 12.7539 27.968 12.754 27.968 12.7539C27.9678 12.7539 27.9666 12.7534 27.9642 12.7528C27.9618 12.7523 27.9573 12.7514 27.9502 12.751L20.5607 12.2714C20.1728 12.2437 19.8008 12.1064 19.488 11.8754C19.1764 11.6454 18.9363 11.3319 18.7954 10.9712L16.043 4.04004L16.0374 4.02572C16.0346 4.01816 16.0295 4.01165 16.0228 4.00705C16.0162 4.00246 16.0083 4 16.0002 4C15.9921 4 15.9842 4.00246 15.9775 4.00705C15.9709 4.01165 15.9658 4.01816 15.9629 4.02572L15.9573 4.04004L13.205 10.9712C13.064 11.3319 12.8239 11.6454 12.5123 11.8754C12.1995 12.1064 11.8275 12.2437 11.4397 12.2714L11.4332 12.2718L4.05018 12.751C4.04308 12.7514 4.03854 12.7523 4.03612 12.7528C4.03468 12.7532 4.03369 12.7535 4.03308 12.7537C4.03265 12.7538 4.03317 12.7536 4.03308 12.7537C4.03306 12.7537 4.03205 12.7539 4.03073 12.7551C4.02696 12.7582 4.01463 12.7714 4.00637 12.7979C3.99813 12.8244 3.99937 12.8472 4.00284 12.8603C4.00438 12.8662 4.00642 12.8707 4.00907 12.8749C4.01153 12.8788 4.01718 12.8867 4.03019 12.8975L9.6836 17.6029L9.68838 17.6069C9.98985 17.8611 10.2135 18.1951 10.3336 18.5707C10.4535 18.9458 10.4652 19.347 10.3675 19.7285C10.3673 19.729 10.3672 19.7295 10.3671 19.73L8.67852 26.3724C8.64177 26.517 8.69298 26.6271 8.78401 26.6962C8.83083 26.7318 8.87854 26.7473 8.917 26.75C8.94915 26.7522 8.99369 26.7475 9.05489 26.7087L14.9118 22.998C14.9121 22.9978 14.9125 22.9976 14.9128 22.9973C15.2378 22.7907 15.615 22.681 16.0002 22.681C16.3853 22.681 16.7625 22.7907 17.0875 22.9973Z" fill="black"/>
</svg>
