<svg width="33" height="32" viewBox="0 0 33 32" fill="none" xmlns="http://www.w3.org/2000/svg">
<g clip-path="url(#clip0_4473_27427)">
<path d="M2.696 24.5679L2.69587 24.5678V24.5683V25.9933H2.69643V25.9939H29.5536V25.9933H29.5541V24.9076H29.5543L29.554 24.9072L21.3433 15.1715L21.3429 15.1719L21.3424 15.1722L21.3403 15.174L13.0036 25.0567L7.64328 18.7001L7.64286 18.7004L7.64243 18.7008L7.64033 18.7026L2.696 24.5679ZM29.5536 21.3576L29.554 21.3572L29.5541 21.3571V5.9933H29.5536V5.99275H2.69643V5.9933H2.69587V21.0183H2.69643H2.69699H2.69716L7.42543 15.4115C7.53949 15.2761 7.74622 15.2761 7.86029 15.4115L13.0031 21.508L13.0036 21.5076L13.004 21.5072L13.0061 21.5055L21.1254 11.8794C21.2395 11.7439 21.4462 11.7439 21.5603 11.8794L29.5531 21.358L29.5536 21.3576ZM1.26786 3.42243H30.9821C31.614 3.42243 32.1244 3.9329 32.1244 4.56473V27.4219C32.1244 28.0537 31.614 28.5642 30.9821 28.5642H1.26786C0.636023 28.5642 0.125558 28.0537 0.125558 27.4219V4.56473C0.125558 3.9329 0.636023 3.42243 1.26786 3.42243ZM9.89894 13.7536C9.51769 13.9115 9.10908 13.9927 8.69643 13.9927C7.86304 13.9927 7.06378 13.6617 6.47449 13.0724C5.88519 12.4831 5.55413 11.6838 5.55413 10.8504C5.55413 10.0171 5.88519 9.2178 6.47449 8.62851C7.06378 8.03921 7.86304 7.70815 8.69643 7.70815C9.10908 7.70815 9.51769 7.78943 9.89894 7.94734C10.2802 8.10526 10.6266 8.33672 10.9184 8.62851C11.2102 8.9203 11.4416 9.2667 11.5995 9.64794C11.7575 10.0292 11.8387 10.4378 11.8387 10.8504C11.8387 11.2631 11.7575 11.6717 11.5995 12.053C11.4416 12.4342 11.2102 12.7806 10.9184 13.0724C10.6266 13.3642 10.2802 13.5956 9.89894 13.7536ZM9.69699 10.8504C9.69699 10.2966 9.25031 9.84989 8.69643 9.84989C8.14255 9.84989 7.69587 10.2966 7.69587 10.8504C7.69587 11.4043 8.14255 11.851 8.69643 11.851C9.25031 11.851 9.69699 11.4043 9.69699 10.8504Z" fill="#53D1B6" stroke="#53D1B6" stroke-width="0.00111607"/>
</g>
<defs>
<clipPath id="clip0_4473_27427">
<rect width="32" height="32" fill="white" transform="translate(0.125)"/>
</clipPath>
</defs>
</svg>
